<svg width="4460" height="1136" viewBox="0 0 4460 1136" fill="none" xmlns="http://www.w3.org/2000/svg">
<g clip-path="url(#clip0_113_3)">
<rect x="86" y="47.5" width="955" height="955" rx="212.399" fill="#FD4C2D"/>
<circle cx="563" cy="546.5" r="88" fill="white"/>
<circle cx="347" cy="272.5" r="88" fill="white"/>
<circle cx="764" cy="272.5" r="88" fill="white"/>
<circle cx="347" cy="757.5" r="88" fill="white"/>
<circle cx="781" cy="778.5" r="88" fill="white"/>
<path d="M357.5 742V268.5H788.5L563 546.5L788.5 777" stroke="white" stroke-width="27"/>
<path d="M1388 886H1266.33V131.177H1658.39C1829.63 131.177 1935.53 212.292 1935.53 353.117C1935.53 478.17 1853.29 554.779 1711.34 562.665V570.551C1769.92 586.324 1796.96 620.122 1824 667.439L1950.18 886H1810.48L1689.93 677.579C1656.13 617.869 1621.21 593.083 1526.58 593.083H1388V886ZM1388 240.457V499.575H1657.26C1758.66 499.575 1809.35 464.651 1809.35 370.016C1809.35 277.635 1758.66 240.457 1657.26 240.457H1388ZM2120.15 897.266C2004.11 897.266 1930.88 843.189 1930.88 750.808C1930.88 664.059 2000.73 618.995 2111.14 606.603L2365.75 579.564V546.893C2365.75 454.511 2325.2 421.84 2218.17 421.84C2114.52 421.84 2063.82 455.638 2063.82 537.88V542.386H1943.28V537.88C1943.28 410.574 2049.18 314.813 2227.18 314.813C2405.18 314.813 2485.17 411.7 2485.17 545.766V886H2373.64V746.301H2365.75C2336.46 840.936 2247.46 897.266 2120.15 897.266ZM2052.56 742.922C2052.56 787.986 2082.98 809.391 2152.83 809.391C2280.13 809.391 2365.75 762.074 2365.75 651.667L2146.07 676.452C2082.98 684.338 2052.56 698.984 2052.56 742.922ZM2769.53 835.303C2602.8 835.303 2503.66 730.529 2503.66 575.058C2503.66 419.587 2607.3 314.813 2777.42 314.813C2894.59 314.813 2982.46 367.763 3002.74 465.777H3009.5V326.079H3121.03V820.657C3121.03 1008.8 3003.87 1088.79 2820.23 1088.79C2654.62 1088.79 2539.71 1011.05 2539.71 875.861H2660.25C2660.25 956.976 2707.57 987.394 2826.99 987.394C2954.3 987.394 3000.49 952.47 3000.49 827.417V689.971H2992.6C2972.32 774.466 2896.84 835.303 2769.53 835.303ZM2626.46 575.058C2626.46 689.971 2694.05 730.529 2808.97 730.529C2932.89 730.529 3000.49 678.705 3000.49 579.564V563.792C3000.49 469.157 2930.64 420.713 2812.34 420.713C2695.18 420.713 2626.46 460.144 2626.46 575.058ZM3287.69 886H3166.02V326.079H3277.55V499.575H3285.44C3302.34 404.941 3376.69 314.813 3518.65 314.813C3674.12 314.813 3750.73 419.587 3750.73 549.146V886H3629.05V581.817C3629.05 477.043 3581.74 424.093 3465.69 424.093C3342.9 424.093 3287.69 487.183 3287.69 608.856V886ZM3956.03 897.266C3839.99 897.266 3766.76 843.189 3766.76 750.808C3766.76 664.059 3836.61 618.995 3947.02 606.603L4201.63 579.564V546.893C4201.63 454.511 4161.07 421.84 4054.05 421.84C3950.4 421.84 3899.7 455.638 3899.7 537.88V542.386H3779.15V537.88C3779.15 410.574 3885.05 314.813 4063.06 314.813C4241.06 314.813 4321.05 411.7 4321.05 545.766V886H4209.52V746.301H4201.63C4172.34 840.936 4083.34 897.266 3956.03 897.266ZM3888.43 742.922C3888.43 787.986 3918.85 809.391 3988.7 809.391C4116.01 809.391 4201.63 762.074 4201.63 651.667L3981.94 676.452C3918.85 684.338 3888.43 698.984 3888.43 742.922Z" fill="white"/>
</g>
<defs>
<clipPath id="clip0_113_3">
<rect width="4460" height="1136" fill="white"/>
</clipPath>
</defs>
</svg>
