<svg width="1470" height="759" viewBox="0 0 1470 759" fill="none" xmlns="http://www.w3.org/2000/svg">
<g clip-path="url(#clip0_60_227)">
<g opacity="0.4">
<path opacity="0.4" d="M787.53 312.009C787.827 312.009 788.068 311.761 788.068 311.456C788.068 311.15 787.827 310.902 787.53 310.902C787.232 310.902 786.991 311.15 786.991 311.456C786.991 311.761 787.232 312.009 787.53 312.009Z" fill="white"/>
<path d="M1092.21 222.389C1092.5 222.389 1092.74 222.142 1092.74 221.836C1092.74 221.53 1092.5 221.283 1092.21 221.283C1091.91 221.283 1091.67 221.53 1091.67 221.836C1091.67 222.142 1091.91 222.389 1092.21 222.389Z" fill="white"/>
<path d="M257.845 570.91C258.142 570.91 258.383 570.662 258.383 570.356C258.383 570.051 258.142 569.803 257.845 569.803C257.547 569.803 257.306 570.051 257.306 570.356C257.306 570.662 257.547 570.91 257.845 570.91Z" fill="white"/>
<path d="M884.424 323.073C884.721 323.073 884.962 322.825 884.962 322.52C884.962 322.214 884.721 321.966 884.424 321.966C884.126 321.966 883.885 322.214 883.885 322.52C883.885 322.825 884.126 323.073 884.424 323.073Z" fill="white"/>
<path d="M1189.1 233.453C1189.4 233.453 1189.64 233.206 1189.64 232.9C1189.64 232.595 1189.4 232.347 1189.1 232.347C1188.8 232.347 1188.56 232.595 1188.56 232.9C1188.56 233.206 1188.8 233.453 1189.1 233.453Z" fill="white"/>
<path d="M354.738 581.974C355.036 581.974 355.277 581.726 355.277 581.421C355.277 581.115 355.036 580.867 354.738 580.867C354.441 580.867 354.2 581.115 354.2 581.421C354.2 581.726 354.441 581.974 354.738 581.974Z" fill="white"/>
<path d="M981.317 267.752C981.614 267.752 981.855 267.505 981.855 267.199C981.855 266.893 981.614 266.646 981.317 266.646C981.02 266.646 980.779 266.893 980.779 267.199C980.779 267.505 981.02 267.752 981.317 267.752Z" fill="white"/>
<path opacity="0.5" d="M1285.99 178.133C1286.29 178.133 1286.53 177.885 1286.53 177.579C1286.53 177.274 1286.29 177.026 1285.99 177.026C1285.7 177.026 1285.46 177.274 1285.46 177.579C1285.46 177.885 1285.7 178.133 1285.99 178.133Z" fill="white"/>
<path d="M451.632 526.653C451.929 526.653 452.17 526.405 452.17 526.1C452.17 525.794 451.929 525.547 451.632 525.547C451.335 525.547 451.094 525.794 451.094 526.1C451.094 526.405 451.335 526.653 451.632 526.653Z" fill="white"/>
<path d="M1078.21 168.175C1078.51 168.175 1078.75 167.927 1078.75 167.622C1078.75 167.316 1078.51 167.069 1078.21 167.069C1077.91 167.069 1077.67 167.316 1077.67 167.622C1077.67 167.927 1077.91 168.175 1078.21 168.175Z" fill="white"/>
<path opacity="0.5" d="M1382.89 78.5554C1383.18 78.5554 1383.43 78.3077 1383.43 78.0022C1383.43 77.6967 1383.18 77.449 1382.89 77.449C1382.59 77.449 1382.35 77.6967 1382.35 78.0022C1382.35 78.3077 1382.59 78.5554 1382.89 78.5554Z" fill="white"/>
<path opacity="0.4" d="M548.526 427.076C548.823 427.076 549.064 426.828 549.064 426.523C549.064 426.217 548.823 425.969 548.526 425.969C548.228 425.969 547.987 426.217 547.987 426.523C547.987 426.828 548.228 427.076 548.526 427.076Z" fill="white"/>
<path d="M1045.91 90.726C1046.21 90.726 1046.45 90.4783 1046.45 90.1727C1046.45 89.8672 1046.21 89.6195 1045.91 89.6195C1045.62 89.6195 1045.37 89.8672 1045.37 90.1727C1045.37 90.4783 1045.62 90.726 1045.91 90.726Z" fill="white"/>
<path opacity="0.4" d="M1350.59 1.10641C1350.89 1.10641 1351.13 0.858735 1351.13 0.553207C1351.13 0.247679 1350.89 0 1350.59 0C1350.29 0 1350.05 0.247679 1350.05 0.553207C1350.05 0.858735 1350.29 1.10641 1350.59 1.10641Z" fill="white"/>
<path opacity="0.4" d="M949.019 57.5335C949.317 57.5335 949.558 57.2859 949.558 56.9803C949.558 56.6748 949.317 56.4271 949.019 56.4271C948.722 56.4271 948.481 56.6748 948.481 56.9803C948.481 57.2859 948.722 57.5335 949.019 57.5335Z" fill="white"/>
<path d="M905.955 201.367C906.253 201.367 906.494 201.12 906.494 200.814C906.494 200.509 906.253 200.261 905.955 200.261C905.658 200.261 905.417 200.509 905.417 200.814C905.417 201.12 905.658 201.367 905.955 201.367Z" fill="white"/>
<path d="M1210.63 111.748C1210.93 111.748 1211.17 111.5 1211.17 111.195C1211.17 110.889 1210.93 110.641 1210.63 110.641C1210.33 110.641 1210.09 110.889 1210.09 111.195C1210.09 111.5 1210.33 111.748 1210.63 111.748Z" fill="white"/>
<path d="M970.551 345.201C970.848 345.201 971.089 344.953 971.089 344.648C971.089 344.342 970.848 344.095 970.551 344.095C970.254 344.095 970.013 344.342 970.013 344.648C970.013 344.953 970.254 345.201 970.551 345.201Z" fill="white"/>
<path d="M1275.23 255.582C1275.53 255.582 1275.77 255.334 1275.77 255.028C1275.77 254.723 1275.53 254.475 1275.23 254.475C1274.93 254.475 1274.69 254.723 1274.69 255.028C1274.69 255.334 1274.93 255.582 1275.23 255.582Z" fill="white"/>
<path d="M440.866 604.102C441.163 604.102 441.404 603.854 441.404 603.549C441.404 603.243 441.163 602.996 440.866 602.996C440.569 602.996 440.328 603.243 440.328 603.549C440.328 603.854 440.569 604.102 440.866 604.102Z" fill="white"/>
<path d="M1132.04 278.816C1132.34 278.816 1132.58 278.569 1132.58 278.263C1132.58 277.958 1132.34 277.71 1132.04 277.71C1131.74 277.71 1131.5 277.958 1131.5 278.263C1131.5 278.569 1131.74 278.816 1132.04 278.816Z" fill="white"/>
<path d="M1436.72 189.197C1437.01 189.197 1437.26 188.949 1437.26 188.644C1437.26 188.338 1437.01 188.09 1436.72 188.09C1436.42 188.09 1436.18 188.338 1436.18 188.644C1436.18 188.949 1436.42 189.197 1436.72 189.197Z" fill="white"/>
<path d="M602.355 537.717C602.653 537.717 602.894 537.47 602.894 537.164C602.894 536.859 602.653 536.611 602.355 536.611C602.058 536.611 601.817 536.859 601.817 537.164C601.817 537.47 602.058 537.717 602.355 537.717Z" fill="white"/>
<path d="M1153.57 267.752C1153.87 267.752 1154.11 267.505 1154.11 267.199C1154.11 266.893 1153.87 266.646 1153.57 266.646C1153.28 266.646 1153.03 266.893 1153.03 267.199C1153.03 267.505 1153.28 267.752 1153.57 267.752Z" fill="white"/>
<path d="M1458.25 178.133C1458.55 178.133 1458.79 177.885 1458.79 177.579C1458.79 177.274 1458.55 177.026 1458.25 177.026C1457.95 177.026 1457.71 177.274 1457.71 177.579C1457.71 177.885 1457.95 178.133 1458.25 178.133Z" fill="white"/>
<path d="M623.887 526.653C624.184 526.653 624.425 526.405 624.425 526.1C624.425 525.794 624.184 525.547 623.887 525.547C623.59 525.547 623.349 525.794 623.349 526.1C623.349 526.405 623.59 526.653 623.887 526.653Z" fill="white"/>
<path d="M1164.34 168.175C1164.64 168.175 1164.88 167.927 1164.88 167.622C1164.88 167.316 1164.64 167.069 1164.34 167.069C1164.04 167.069 1163.8 167.316 1163.8 167.622C1163.8 167.927 1164.04 168.175 1164.34 168.175Z" fill="white"/>
<path d="M1469.02 78.5554C1469.31 78.5554 1469.55 78.3077 1469.55 78.0022C1469.55 77.6967 1469.31 77.449 1469.02 77.449C1468.72 77.449 1468.48 77.6967 1468.48 78.0022C1468.48 78.3077 1468.72 78.5554 1469.02 78.5554Z" fill="white"/>
<path d="M634.653 427.076C634.951 427.076 635.192 426.828 635.192 426.523C635.192 426.217 634.951 425.969 634.653 425.969C634.356 425.969 634.115 426.217 634.115 426.523C634.115 426.828 634.356 427.076 634.653 427.076Z" fill="white"/>
<path opacity="0.4" d="M1141.73 123.918C1142.03 123.918 1142.27 123.671 1142.27 123.365C1142.27 123.06 1142.03 122.812 1141.73 122.812C1141.43 122.812 1141.19 123.06 1141.19 123.365C1141.19 123.671 1141.43 123.918 1141.73 123.918Z" fill="white"/>
<path d="M1446.41 34.2988C1446.7 34.2988 1446.94 34.0511 1446.94 33.7456C1446.94 33.4401 1446.7 33.1924 1446.41 33.1924C1446.11 33.1924 1445.87 33.4401 1445.87 33.7456C1445.87 34.0511 1446.11 34.2988 1446.41 34.2988Z" fill="white"/>
<path d="M612.045 382.819C612.342 382.819 612.583 382.572 612.583 382.266C612.583 381.961 612.342 381.713 612.045 381.713C611.747 381.713 611.506 381.961 611.506 382.266C611.506 382.572 611.747 382.819 612.045 382.819Z" fill="white"/>
<path opacity="0.4" d="M1011.46 179.239C1011.76 179.239 1012 178.991 1012 178.686C1012 178.38 1011.76 178.133 1011.46 178.133C1011.16 178.133 1010.92 178.38 1010.92 178.686C1010.92 178.991 1011.16 179.239 1011.46 179.239Z" fill="white"/>
<path d="M1316.14 89.6195C1316.44 89.6195 1316.68 89.3719 1316.68 89.0663C1316.68 88.7608 1316.44 88.5131 1316.14 88.5131C1315.84 88.5131 1315.6 88.7608 1315.6 89.0663C1315.6 89.3719 1315.84 89.6195 1316.14 89.6195Z" fill="white"/>
<path opacity="0.5" d="M481.777 438.14C482.074 438.14 482.315 437.892 482.315 437.587C482.315 437.281 482.074 437.034 481.777 437.034C481.479 437.034 481.238 437.281 481.238 437.587C481.238 437.892 481.479 438.14 481.777 438.14Z" fill="white"/>
<path opacity="0.5" d="M881.194 256.688C881.491 256.688 881.732 256.44 881.732 256.135C881.732 255.829 881.491 255.582 881.194 255.582C880.896 255.582 880.655 255.829 880.655 256.135C880.655 256.44 880.896 256.688 881.194 256.688Z" fill="white"/>
<path d="M1185.87 167.069C1186.17 167.069 1186.41 166.821 1186.41 166.515C1186.41 166.21 1186.17 165.962 1185.87 165.962C1185.57 165.962 1185.33 166.21 1185.33 166.515C1185.33 166.821 1185.57 167.069 1185.87 167.069Z" fill="white"/>
<path opacity="0.4" d="M351.509 515.589C351.806 515.589 352.047 515.341 352.047 515.036C352.047 514.73 351.806 514.483 351.509 514.483C351.211 514.483 350.97 514.73 350.97 515.036C350.97 515.341 351.211 515.589 351.509 515.589Z" fill="white"/>
<path d="M740.16 378.394C740.457 378.394 740.698 378.146 740.698 377.84C740.698 377.535 740.457 377.287 740.16 377.287C739.862 377.287 739.621 377.535 739.621 377.84C739.621 378.146 739.862 378.394 740.16 378.394Z" fill="white"/>
<path d="M1044.84 288.774C1045.13 288.774 1045.37 288.526 1045.37 288.221C1045.37 287.915 1045.13 287.668 1044.84 287.668C1044.54 287.668 1044.3 287.915 1044.3 288.221C1044.3 288.526 1044.54 288.774 1044.84 288.774Z" fill="white"/>
<path d="M210.475 637.294C210.772 637.294 211.013 637.047 211.013 636.741C211.013 636.436 210.772 636.188 210.475 636.188C210.177 636.188 209.936 636.436 209.936 636.741C209.936 637.047 210.177 637.294 210.475 637.294Z" fill="white"/>
<path d="M652.955 500.099C653.253 500.099 653.494 499.851 653.494 499.546C653.494 499.24 653.253 498.993 652.955 498.993C652.658 498.993 652.417 499.24 652.417 499.546C652.417 499.851 652.658 500.099 652.955 500.099Z" fill="white"/>
<path d="M957.632 410.48C957.929 410.48 958.17 410.232 958.17 409.926C958.17 409.621 957.929 409.373 957.632 409.373C957.335 409.373 957.094 409.621 957.094 409.926C957.094 410.232 957.335 410.48 957.632 410.48Z" fill="white"/>
<path d="M123.27 759C123.568 759 123.809 758.752 123.809 758.447C123.809 758.141 123.568 757.894 123.27 757.894C122.973 757.894 122.732 758.141 122.732 758.447C122.732 758.752 122.973 759 123.27 759Z" fill="white"/>
</g>
</g>
<defs>
<clipPath id="clip0_60_227">
<rect width="1469.55" height="759" fill="white"/>
</clipPath>
</defs>
</svg>
